<svg id="svg" version="1.1" xmlns="http://www.w3.org/2000/svg" xmlns:xlink="http://www.w3.org/1999/xlink" width="400" height="474.6031746031746" viewBox="0, 0, 400,474.6031746031746"><g id="svgg"><path id="path0" d="M219.800 54.422 C 219.140 54.650,216.890 54.915,214.800 55.010 C 209.779 55.238,204.802 55.812,201.594 56.533 C 200.160 56.855,197.910 57.249,196.594 57.409 C 195.277 57.568,194.020 57.840,193.800 58.012 C 193.580 58.184,192.500 58.453,191.400 58.609 C 190.300 58.764,188.860 59.139,188.200 59.442 C 187.540 59.744,186.190 60.159,185.200 60.365 C 184.210 60.571,182.680 61.015,181.800 61.352 C 180.920 61.689,179.854 61.973,179.431 61.982 C 179.009 61.992,178.379 62.252,178.031 62.560 C 177.684 62.868,176.770 63.311,176.000 63.543 C 173.110 64.416,170.329 65.511,169.892 65.948 C 169.643 66.197,169.050 66.400,168.574 66.400 C 168.098 66.400,167.250 66.760,166.691 67.200 C 166.131 67.640,165.411 68.000,165.091 68.000 C 164.770 68.000,164.050 68.360,163.491 68.800 C 162.931 69.240,162.211 69.600,161.891 69.600 C 161.570 69.600,160.879 69.922,160.354 70.316 C 159.829 70.710,158.950 71.258,158.400 71.535 C 157.850 71.812,156.860 72.310,156.200 72.640 C 155.540 72.971,154.730 73.408,154.400 73.612 C 154.070 73.816,152.720 74.624,151.400 75.409 C 150.080 76.193,148.100 77.462,147.000 78.229 C 145.900 78.996,144.660 79.843,144.244 80.112 C 143.829 80.380,142.993 81.005,142.387 81.500 C 141.780 81.995,141.167 82.400,141.023 82.400 C 140.387 82.400,130.617 90.700,126.800 94.483 C 119.019 102.194,114.970 107.004,111.008 113.243 C 110.784 113.596,110.064 114.676,109.408 115.643 C 107.812 117.996,107.375 118.716,106.397 120.600 C 105.940 121.480,105.138 122.920,104.615 123.800 C 103.031 126.466,100.069 132.530,99.787 133.684 C 99.641 134.280,99.269 134.977,98.961 135.233 C 98.652 135.489,98.400 136.043,98.400 136.465 C 98.400 136.887,98.040 137.938,97.600 138.800 C 97.160 139.662,96.800 140.652,96.800 141.000 C 96.800 141.348,96.440 142.338,96.000 143.200 C 95.560 144.062,95.199 145.090,95.198 145.484 C 95.196 145.878,94.957 146.655,94.667 147.212 C 94.376 147.769,93.919 149.339,93.651 150.701 C 93.383 152.063,92.903 153.678,92.585 154.289 C 92.266 154.900,92.003 156.120,92.000 157.000 C 91.997 157.880,91.732 159.105,91.410 159.721 C 91.088 160.338,90.644 162.610,90.422 164.770 C 90.201 166.930,89.846 169.153,89.634 169.711 C 89.422 170.268,89.053 172.946,88.814 175.662 C 88.575 178.378,88.294 181.050,88.189 181.600 C 88.085 182.150,87.961 190.880,87.915 201.000 C 87.822 221.045,87.717 220.034,90.146 222.600 L 91.283 223.800 96.052 223.708 C 98.675 223.658,101.172 223.429,101.600 223.200 C 102.028 222.971,103.328 222.604,104.489 222.386 C 106.840 221.943,110.661 220.516,111.631 219.719 C 111.979 219.433,112.416 219.200,112.602 219.200 C 113.070 219.200,118.373 215.586,119.380 214.581 C 126.730 207.244,130.961 199.281,131.803 191.200 C 132.090 188.450,132.608 183.500,132.955 180.200 C 133.302 176.900,133.846 173.210,134.163 172.000 C 134.481 170.790,134.924 168.990,135.149 168.000 C 136.009 164.208,136.851 161.360,137.415 160.338 C 137.737 159.754,138.000 158.942,138.000 158.532 C 138.000 158.123,138.360 157.116,138.800 156.296 C 139.240 155.475,139.600 154.587,139.600 154.322 C 139.600 153.831,144.696 143.323,145.286 142.600 C 145.465 142.380,146.856 140.310,148.377 138.000 C 151.998 132.502,158.977 124.823,164.373 120.400 C 165.312 119.630,166.378 118.706,166.740 118.348 C 168.209 116.895,176.694 111.242,177.835 110.955 C 178.366 110.822,178.801 110.598,178.801 110.457 C 178.803 110.101,184.125 107.463,189.000 105.402 C 189.660 105.123,191.060 104.513,192.111 104.047 C 193.162 103.581,194.386 103.200,194.833 103.200 C 195.279 103.200,196.399 102.862,197.322 102.448 C 198.245 102.035,200.080 101.570,201.400 101.416 C 202.720 101.262,204.160 100.908,204.600 100.629 C 205.040 100.350,207.110 100.018,209.200 99.890 C 211.290 99.762,213.788 99.374,214.750 99.028 C 216.779 98.300,235.658 98.157,239.600 98.840 C 240.810 99.049,243.636 99.475,245.880 99.785 C 248.123 100.096,250.338 100.553,250.801 100.801 C 251.265 101.049,252.695 101.421,253.980 101.628 C 255.265 101.835,256.830 102.272,257.458 102.600 C 258.086 102.927,259.000 103.196,259.489 103.198 C 259.978 103.199,261.238 103.581,262.289 104.047 C 265.432 105.441,266.475 105.888,269.200 107.007 C 270.630 107.594,272.070 108.240,272.400 108.442 C 272.730 108.645,273.720 109.169,274.600 109.607 C 275.480 110.046,276.740 110.763,277.400 111.202 C 278.060 111.641,279.051 112.226,279.602 112.500 C 281.306 113.350,285.275 116.109,286.773 117.486 C 287.558 118.206,288.318 118.797,288.463 118.798 C 290.385 118.812,305.488 134.837,307.880 139.400 C 308.226 140.060,308.998 141.230,309.595 142.000 C 310.766 143.509,311.094 144.088,313.139 148.266 C 313.875 149.770,314.641 151.270,314.841 151.600 C 315.041 151.930,315.316 152.470,315.451 152.800 C 315.586 153.130,316.005 154.120,316.383 155.000 C 317.830 158.373,318.796 161.053,319.050 162.400 C 319.195 163.170,319.535 164.250,319.805 164.800 C 320.075 165.350,320.427 166.698,320.587 167.795 C 320.747 168.892,321.111 170.242,321.396 170.795 C 321.681 171.348,322.047 173.240,322.208 175.000 C 322.369 176.760,322.738 178.830,323.027 179.600 C 324.091 182.426,325.150 202.062,324.455 206.055 C 324.153 207.787,324.004 218.677,323.995 239.659 L 323.982 270.701 325.066 272.356 C 326.984 275.286,331.778 277.113,333.164 275.443 C 333.419 275.137,334.117 274.683,334.717 274.435 C 335.316 274.186,336.314 273.181,336.934 272.201 L 338.062 270.418 337.870 229.109 C 337.706 193.785,337.588 187.365,337.055 184.800 C 336.712 183.150,336.423 180.900,336.412 179.800 C 336.400 178.700,336.132 176.947,335.816 175.904 C 335.500 174.861,335.126 172.881,334.986 171.504 C 334.845 170.127,334.386 167.964,333.965 166.698 C 333.544 165.433,333.200 164.026,333.200 163.572 C 333.200 163.119,332.988 162.354,332.728 161.874 C 332.468 161.393,332.026 160.100,331.745 159.000 C 331.046 156.268,329.616 152.283,329.168 151.820 C 328.966 151.611,328.800 151.178,328.800 150.859 C 328.800 150.280,327.119 146.344,326.384 145.200 C 326.172 144.870,325.808 144.150,325.575 143.600 C 324.223 140.405,321.026 134.849,318.873 131.956 C 312.184 122.967,310.035 120.375,305.834 116.233 C 303.175 113.612,299.920 110.594,298.600 109.527 C 297.280 108.460,295.930 107.357,295.600 107.076 C 295.270 106.795,293.650 105.676,292.000 104.589 C 290.350 103.503,288.910 102.500,288.800 102.362 C 288.690 102.225,288.060 101.809,287.400 101.440 C 286.740 101.071,285.480 100.338,284.600 99.812 C 283.720 99.285,282.460 98.576,281.800 98.236 C 281.140 97.895,280.330 97.456,280.000 97.261 C 278.355 96.287,272.676 93.600,272.262 93.600 C 272.001 93.600,271.116 93.240,270.296 92.800 C 269.475 92.360,268.532 92.000,268.200 92.000 C 267.868 92.000,266.925 91.640,266.104 91.200 C 265.284 90.760,264.159 90.394,263.606 90.386 C 263.053 90.379,261.880 90.025,261.000 89.600 C 260.120 89.175,258.909 88.821,258.308 88.814 C 257.708 88.806,256.538 88.531,255.708 88.203 C 254.879 87.874,253.120 87.440,251.800 87.237 C 250.480 87.034,248.320 86.590,247.000 86.249 C 245.680 85.908,243.486 85.622,242.124 85.614 C 240.762 85.606,239.525 85.403,239.376 85.162 C 239.208 84.889,238.558 84.826,237.653 84.995 C 235.375 85.420,228.162 85.185,227.285 84.657 C 226.553 84.216,206.876 85.839,206.205 86.396 C 205.931 86.623,204.255 86.991,202.481 87.214 C 200.706 87.436,198.618 87.884,197.840 88.209 C 197.062 88.534,195.990 88.800,195.457 88.800 C 194.923 88.800,193.703 89.156,192.744 89.591 C 191.785 90.026,190.640 90.387,190.200 90.394 C 189.760 90.400,188.863 90.685,188.207 91.027 C 186.458 91.939,182.227 93.596,181.569 93.627 C 181.256 93.641,180.100 94.180,179.000 94.823 C 177.900 95.467,176.550 96.180,176.000 96.409 C 174.378 97.082,174.272 97.138,172.600 98.194 C 171.720 98.750,170.427 99.471,169.727 99.796 C 169.027 100.122,168.340 100.573,168.200 100.800 C 168.060 101.027,167.373 101.476,166.673 101.798 C 161.912 103.991,148.883 115.342,143.484 122.000 C 142.146 123.650,140.725 125.322,140.326 125.716 C 139.926 126.109,139.600 126.588,139.600 126.780 C 139.600 126.971,138.880 128.039,138.000 129.152 C 137.120 130.266,136.400 131.266,136.400 131.376 C 136.400 131.485,135.720 132.616,134.889 133.887 C 132.759 137.148,132.488 137.600,131.600 139.400 C 131.166 140.280,130.648 141.270,130.450 141.600 C 130.251 141.930,129.596 143.239,128.993 144.509 C 128.389 145.778,127.753 146.905,127.579 147.013 C 127.404 147.121,127.137 147.792,126.985 148.505 C 126.832 149.217,126.473 150.250,126.186 150.800 C 125.600 151.922,124.617 154.802,123.796 157.800 C 123.495 158.900,122.976 160.520,122.642 161.400 C 122.308 162.280,122.027 163.507,122.018 164.126 C 122.008 164.746,121.791 165.644,121.535 166.122 C 120.788 167.517,119.566 176.039,119.057 183.400 C 118.798 187.140,118.390 190.560,118.150 191.000 C 117.909 191.440,117.598 192.402,117.459 193.138 C 117.152 194.753,115.523 198.400,115.108 198.400 C 114.944 198.400,114.565 198.985,114.265 199.700 C 113.580 201.329,108.788 206.400,107.933 206.400 C 107.584 206.400,107.081 206.661,106.816 206.980 C 106.129 207.808,102.951 208.223,102.182 207.585 C 101.432 206.963,101.574 179.508,102.348 175.400 C 102.597 174.080,102.901 172.100,103.024 171.000 C 103.257 168.923,104.378 163.551,105.445 159.400 C 105.785 158.080,106.217 156.146,106.407 155.103 C 106.596 154.059,107.032 152.804,107.375 152.314 C 107.719 151.823,108.000 150.987,108.000 150.455 C 108.000 149.525,108.824 147.451,110.437 144.321 C 110.857 143.507,111.200 142.553,111.200 142.200 C 111.200 141.847,111.538 140.893,111.951 140.079 C 112.365 139.266,113.111 137.700,113.610 136.600 C 114.110 135.500,114.673 134.330,114.862 134.000 C 115.051 133.670,115.404 132.950,115.646 132.400 C 115.888 131.850,116.250 131.130,116.451 130.800 C 116.652 130.470,117.095 129.660,117.436 129.000 C 117.776 128.340,118.491 127.080,119.025 126.200 C 119.558 125.320,120.261 124.031,120.587 123.337 C 120.913 122.642,121.320 122.012,121.490 121.937 C 121.661 121.861,122.339 120.990,122.998 120.000 C 124.146 118.276,127.768 113.444,129.688 111.075 C 131.512 108.825,141.849 98.798,143.666 97.516 C 144.692 96.792,147.661 94.580,150.263 92.600 C 152.865 90.620,155.446 88.775,155.997 88.500 C 156.549 88.226,157.540 87.640,158.200 87.199 C 158.860 86.759,159.940 86.121,160.600 85.783 C 161.260 85.444,162.520 84.733,163.400 84.203 C 164.280 83.672,165.270 83.118,165.600 82.971 C 165.930 82.824,166.920 82.375,167.800 81.973 C 168.680 81.570,169.850 81.053,170.400 80.822 C 170.950 80.591,171.670 80.234,172.000 80.029 C 172.582 79.668,174.106 78.976,178.151 77.238 C 179.224 76.777,180.284 76.400,180.507 76.400 C 180.730 76.400,181.652 76.055,182.556 75.633 C 186.017 74.017,192.698 72.101,197.261 71.415 C 199.165 71.129,200.952 70.753,201.232 70.580 C 201.512 70.407,203.284 70.114,205.170 69.928 C 207.057 69.742,209.590 69.407,210.800 69.184 C 212.010 68.960,214.800 68.623,217.000 68.435 C 219.200 68.248,221.507 67.893,222.126 67.647 C 223.488 67.106,225.705 67.075,227.600 67.570 C 228.370 67.771,231.610 68.044,234.800 68.177 C 241.500 68.456,245.574 68.870,246.330 69.349 C 246.622 69.533,248.242 69.822,249.930 69.991 C 251.619 70.159,253.540 70.486,254.200 70.716 C 254.860 70.946,256.750 71.404,258.400 71.733 C 263.771 72.804,268.666 74.177,271.400 75.380 C 272.060 75.670,274.107 76.481,275.950 77.181 C 277.792 77.882,279.592 78.594,279.950 78.765 C 280.307 78.935,281.500 79.477,282.600 79.970 C 285.614 81.320,288.524 82.851,289.231 83.458 C 289.579 83.756,290.127 84.000,290.450 84.000 C 290.773 84.000,291.389 84.270,291.819 84.599 C 293.318 85.748,298.065 88.800,298.354 88.800 C 298.514 88.800,299.203 89.205,299.885 89.700 C 301.339 90.755,301.947 91.168,304.500 92.835 C 305.545 93.517,306.400 94.224,306.400 94.407 C 306.400 95.492,313.614 95.875,315.037 94.866 C 319.471 91.722,318.564 86.177,313.020 82.535 C 311.469 81.516,309.712 80.349,309.116 79.941 C 308.520 79.534,307.867 79.200,307.665 79.200 C 307.463 79.200,307.086 78.945,306.828 78.634 C 306.234 77.918,301.574 74.854,299.200 73.618 C 298.210 73.103,297.130 72.459,296.800 72.188 C 296.470 71.917,295.750 71.559,295.200 71.392 C 294.650 71.226,293.771 70.755,293.246 70.345 C 292.721 69.935,291.967 69.600,291.570 69.600 C 291.172 69.600,290.731 69.413,290.590 69.184 C 290.335 68.772,288.660 67.962,280.325 64.221 C 279.073 63.660,277.700 63.200,277.274 63.200 C 276.847 63.200,276.293 62.952,276.041 62.650 C 275.790 62.347,274.823 61.978,273.892 61.830 C 272.962 61.681,271.836 61.321,271.391 61.030 C 270.946 60.739,269.795 60.368,268.832 60.205 C 267.869 60.043,266.523 59.682,265.841 59.404 C 265.158 59.126,263.700 58.769,262.600 58.610 C 261.500 58.451,260.283 58.152,259.897 57.945 C 259.510 57.738,257.980 57.387,256.497 57.166 C 255.013 56.945,252.720 56.586,251.400 56.369 C 250.080 56.151,246.750 55.799,244.000 55.585 C 241.250 55.372,238.318 55.009,237.485 54.778 C 235.351 54.188,221.297 53.905,219.800 54.422 M217.425 116.469 C 216.998 116.719,214.960 117.079,212.895 117.269 C 210.829 117.459,208.565 117.854,207.863 118.148 C 207.161 118.441,205.705 118.813,204.627 118.975 C 203.549 119.137,202.292 119.503,201.833 119.790 C 201.375 120.076,200.299 120.434,199.442 120.584 C 198.584 120.735,197.504 121.097,197.042 121.390 C 196.579 121.682,195.627 122.041,194.928 122.186 C 194.228 122.332,193.441 122.710,193.179 123.026 C 192.917 123.342,192.388 123.600,192.005 123.600 C 191.622 123.600,190.850 123.960,190.291 124.400 C 189.731 124.840,189.000 125.200,188.665 125.200 C 188.331 125.200,187.801 125.457,187.487 125.770 C 187.173 126.084,186.305 126.631,185.558 126.986 C 178.570 130.305,167.527 139.926,163.005 146.634 C 162.128 147.935,161.317 149.090,161.202 149.200 C 159.640 150.693,154.396 161.949,153.781 165.127 C 153.640 165.857,153.273 166.937,152.965 167.527 C 152.657 168.117,152.404 169.094,152.402 169.698 C 152.401 170.303,152.054 171.833,151.630 173.098 C 151.185 174.432,150.746 177.230,150.588 179.752 C 150.439 182.145,150.065 184.704,149.758 185.439 C 149.406 186.281,149.196 188.294,149.190 190.887 C 149.185 193.149,149.013 195.630,148.809 196.400 C 148.604 197.170,148.227 198.610,147.970 199.600 C 147.053 203.139,143.615 210.594,141.299 214.066 C 140.695 214.973,140.020 216.010,139.800 216.372 C 139.580 216.733,139.169 217.293,138.886 217.615 C 138.603 217.937,137.923 218.830,137.374 219.600 C 135.085 222.813,124.979 232.090,122.400 233.346 C 122.070 233.507,121.080 234.067,120.200 234.591 C 118.673 235.500,112.044 238.831,108.556 240.441 C 107.652 240.858,106.379 241.200,105.727 241.200 C 105.076 241.200,103.745 241.469,102.771 241.797 C 101.797 242.126,99.380 242.560,97.400 242.762 C 86.020 243.923,84.831 248.885,94.571 254.567 C 96.798 255.866,105.397 255.931,107.894 254.667 C 108.502 254.359,109.711 253.978,110.580 253.820 C 111.448 253.663,112.523 253.279,112.969 252.967 C 113.414 252.655,114.056 252.400,114.395 252.400 C 114.734 252.400,115.639 252.064,116.406 251.653 C 117.173 251.243,118.373 250.781,119.072 250.628 C 119.772 250.474,120.559 250.090,120.821 249.774 C 121.083 249.458,121.612 249.200,121.995 249.200 C 122.378 249.200,123.121 248.869,123.646 248.464 C 124.171 248.059,125.500 247.210,126.600 246.577 C 127.700 245.945,128.838 245.196,129.129 244.914 C 129.419 244.631,129.820 244.400,130.020 244.400 C 132.635 244.400,152.400 224.322,152.400 221.665 C 152.400 221.463,152.680 221.065,153.023 220.781 C 153.366 220.496,153.908 219.709,154.227 219.032 C 154.547 218.354,155.706 216.115,156.804 214.057 C 157.902 211.998,158.800 209.963,158.800 209.536 C 158.800 209.108,159.148 208.093,159.572 207.279 C 160.899 204.738,161.660 201.559,162.007 197.102 C 162.192 194.738,162.524 191.858,162.747 190.702 C 162.969 189.546,163.359 186.441,163.614 183.801 C 163.869 181.162,164.230 178.718,164.416 178.370 C 164.602 178.023,164.879 176.762,165.033 175.569 C 165.186 174.376,165.646 172.538,166.056 171.485 C 166.465 170.432,166.800 169.216,166.800 168.784 C 166.800 168.351,167.160 167.325,167.600 166.504 C 168.040 165.684,168.400 164.826,168.400 164.598 C 168.400 164.370,168.934 163.198,169.587 161.992 C 170.239 160.786,171.021 159.260,171.325 158.600 C 171.628 157.940,172.174 157.153,172.538 156.851 C 172.902 156.549,173.200 156.152,173.200 155.969 C 173.200 154.645,181.657 145.616,184.800 143.584 C 185.790 142.945,186.780 142.281,187.000 142.111 C 187.220 141.940,188.210 141.277,189.200 140.637 C 190.190 139.998,191.488 139.143,192.084 138.737 C 192.680 138.332,193.372 138.000,193.621 138.000 C 193.870 138.000,194.531 137.640,195.091 137.200 C 195.650 136.760,196.512 136.400,197.005 136.400 C 197.498 136.400,198.126 136.130,198.400 135.800 C 198.674 135.470,199.101 135.198,199.349 135.196 C 199.597 135.194,200.700 134.750,201.800 134.209 C 202.900 133.668,204.255 133.219,204.811 133.213 C 205.367 133.206,206.220 132.922,206.705 132.581 C 207.191 132.241,208.909 131.814,210.523 131.633 C 212.137 131.452,213.842 131.099,214.311 130.848 C 214.780 130.597,217.197 130.205,219.682 129.978 C 222.167 129.751,224.380 129.547,224.600 129.523 C 226.768 129.296,240.826 130.164,242.495 130.628 C 243.653 130.950,245.616 131.374,246.859 131.571 C 248.101 131.767,249.541 132.194,250.059 132.519 C 250.576 132.844,251.657 133.225,252.460 133.366 C 253.263 133.506,254.140 133.886,254.409 134.211 C 254.678 134.535,255.302 134.800,255.795 134.800 C 256.288 134.800,257.121 135.124,257.646 135.520 C 258.171 135.915,259.770 136.830,261.200 137.551 C 266.070 140.010,266.050 139.997,270.633 143.693 C 272.469 145.175,274.743 147.235,275.686 148.271 C 276.629 149.307,277.670 150.446,278.000 150.801 C 280.763 153.773,284.133 159.025,286.342 163.800 C 287.054 165.340,287.899 167.110,288.218 167.732 C 288.538 168.355,288.806 169.165,288.814 169.532 C 288.821 169.900,289.175 170.920,289.600 171.800 C 290.025 172.680,290.379 173.777,290.386 174.237 C 290.394 174.698,290.760 176.121,291.200 177.400 C 291.640 178.679,292.000 180.133,292.000 180.631 C 292.000 181.129,292.349 183.036,292.775 184.868 C 294.009 190.177,294.400 202.228,294.403 235.154 C 294.407 270.362,294.629 273.546,297.633 281.408 C 298.055 282.512,298.401 283.682,298.403 284.008 C 298.404 284.333,298.763 285.140,299.200 285.800 C 299.637 286.460,299.996 287.217,299.997 287.482 C 299.999 287.747,300.453 288.647,301.007 289.482 C 301.561 290.317,302.236 291.335,302.507 291.744 C 304.835 295.259,312.863 303.093,316.800 305.691 C 320.907 308.402,325.106 310.800,325.744 310.800 C 326.001 310.800,326.884 311.160,327.704 311.600 C 331.003 313.368,337.458 312.489,340.300 309.885 C 342.737 307.652,339.835 302.835,335.192 301.407 C 334.647 301.239,333.977 300.924,333.706 300.707 C 333.046 300.179,327.686 297.327,326.300 296.767 C 325.695 296.522,325.200 296.181,325.200 296.009 C 325.200 295.838,324.615 295.457,323.900 295.163 C 320.794 293.888,312.411 284.135,311.119 280.295 C 310.880 279.583,310.529 278.801,310.340 278.557 C 308.320 275.952,308.229 274.241,307.971 233.800 C 307.760 200.795,307.642 195.379,307.072 192.600 C 306.711 190.840,306.410 188.410,306.403 187.200 C 306.396 185.990,306.035 183.560,305.600 181.800 C 305.165 180.040,304.807 178.112,304.805 177.515 C 304.802 176.918,304.440 175.516,304.000 174.400 C 303.560 173.284,303.200 171.920,303.200 171.369 C 303.200 170.819,302.840 169.662,302.400 168.800 C 301.960 167.938,301.600 166.858,301.600 166.400 C 301.600 165.942,301.240 164.862,300.800 164.000 C 300.360 163.138,300.000 162.087,300.000 161.665 C 300.000 161.243,299.730 160.674,299.400 160.400 C 299.070 160.126,298.800 159.702,298.800 159.457 C 298.800 159.028,297.095 155.234,296.347 154.000 C 296.147 153.670,295.722 152.831,295.402 152.137 C 295.082 151.442,294.673 150.812,294.493 150.737 C 294.313 150.661,293.765 149.943,293.276 149.141 C 287.266 139.292,274.909 128.810,262.400 122.951 C 261.410 122.488,259.970 121.815,259.200 121.456 C 258.430 121.097,257.170 120.690,256.400 120.553 C 255.630 120.415,254.623 120.069,254.163 119.783 C 253.702 119.497,252.307 119.075,251.061 118.845 C 249.816 118.615,248.483 118.259,248.099 118.054 C 247.714 117.849,246.320 117.550,245.000 117.390 C 243.680 117.229,242.133 116.861,241.563 116.572 C 240.183 115.870,218.601 115.778,217.425 116.469 M219.000 145.823 C 217.020 146.112,214.680 146.623,213.800 146.957 C 212.920 147.291,211.778 147.573,211.262 147.582 C 210.746 147.592,209.846 147.857,209.262 148.170 C 208.678 148.484,207.030 149.302,205.600 149.989 C 196.268 154.468,185.584 164.544,184.163 170.204 C 184.030 170.734,183.681 171.367,183.386 171.611 C 183.092 171.855,182.729 172.628,182.580 173.328 C 182.430 174.027,182.065 175.050,181.768 175.600 C 181.472 176.150,180.946 177.680,180.600 179.000 C 180.254 180.320,179.802 182.030,179.595 182.800 C 179.388 183.570,179.215 184.884,179.210 185.720 C 179.204 186.556,178.955 187.726,178.655 188.320 C 178.327 188.972,177.924 192.222,177.640 196.516 C 177.380 200.430,177.014 204.037,176.826 204.531 C 176.638 205.026,176.352 206.864,176.190 208.615 C 176.028 210.367,175.719 212.250,175.503 212.800 C 175.288 213.350,174.874 214.700,174.584 215.800 C 173.913 218.348,172.609 222.061,172.040 223.042 C 171.798 223.459,171.419 224.250,171.197 224.800 C 170.118 227.479,165.034 235.543,162.946 237.888 C 162.316 238.596,161.520 239.534,161.179 239.972 C 156.534 245.927,142.245 257.845,136.610 260.465 C 136.164 260.672,135.080 261.278,134.200 261.811 C 133.320 262.345,132.150 262.965,131.600 263.191 C 131.050 263.416,130.317 263.762,129.972 263.959 C 129.626 264.156,128.096 264.797,126.572 265.383 C 125.047 265.969,122.990 266.771,122.000 267.165 C 119.049 268.341,116.307 269.238,114.494 269.619 C 113.556 269.817,112.421 270.175,111.972 270.415 C 111.524 270.655,110.047 271.030,108.692 271.248 C 107.336 271.467,106.027 271.812,105.782 272.015 C 105.537 272.218,103.911 272.582,102.168 272.824 C 100.426 273.066,98.321 273.520,97.492 273.832 C 96.662 274.144,95.620 274.400,95.176 274.400 C 93.496 274.400,89.877 277.495,88.627 280.000 C 87.432 282.396,87.746 283.381,90.390 285.537 L 92.550 287.298 96.575 287.118 C 98.789 287.019,101.037 286.703,101.572 286.417 C 102.106 286.130,103.983 285.734,105.743 285.537 C 107.503 285.340,109.154 285.004,109.413 284.790 C 109.671 284.575,111.033 284.283,112.441 284.139 C 113.848 283.995,115.627 283.545,116.394 283.139 C 117.161 282.733,118.241 282.394,118.794 282.386 C 119.347 282.379,120.520 282.025,121.400 281.600 C 122.280 281.175,123.322 280.821,123.716 280.814 C 124.110 280.806,125.138 280.440,126.000 280.000 C 126.862 279.560,127.890 279.199,128.284 279.197 C 128.678 279.196,129.540 278.837,130.200 278.400 C 130.860 277.963,131.633 277.604,131.918 277.603 C 132.203 277.601,134.813 276.409,137.718 274.954 C 144.517 271.548,145.507 271.008,146.359 270.237 C 146.746 269.887,147.178 269.600,147.319 269.600 C 147.561 269.600,149.626 268.190,154.246 264.870 C 159.795 260.883,167.027 253.793,173.699 245.800 C 175.549 243.583,180.793 235.568,181.042 234.575 C 181.178 234.035,181.429 233.506,181.601 233.399 C 181.976 233.168,184.400 228.210,184.400 227.674 C 184.400 227.467,184.670 227.074,185.000 226.800 C 185.330 226.526,185.600 225.957,185.600 225.535 C 185.600 225.113,185.960 224.062,186.400 223.200 C 186.840 222.338,187.200 221.288,187.200 220.868 C 187.200 220.448,187.536 219.046,187.947 217.752 C 188.358 216.458,188.826 214.140,188.988 212.600 C 189.150 211.060,189.445 209.494,189.644 209.121 C 189.843 208.747,190.188 206.137,190.410 203.321 C 190.632 200.504,191.066 196.850,191.375 195.200 C 191.685 193.550,192.040 190.800,192.165 189.088 C 192.290 187.376,192.664 185.450,192.996 184.808 C 193.328 184.165,193.600 183.246,193.600 182.764 C 193.600 182.282,193.940 181.148,194.354 180.244 C 194.769 179.340,195.311 178.150,195.559 177.600 C 195.806 177.050,196.367 176.060,196.805 175.400 C 197.243 174.740,197.859 173.660,198.174 173.000 C 199.921 169.336,206.613 164.318,214.200 160.982 C 220.897 158.037,232.814 158.046,239.800 161.002 C 250.066 165.345,260.400 175.662,260.400 181.567 C 260.400 182.147,260.668 183.005,260.996 183.473 C 261.324 183.941,261.773 185.602,261.995 187.165 C 262.217 188.728,262.601 190.860,262.849 191.903 C 263.431 194.346,263.407 206.512,262.809 212.200 C 262.555 214.620,262.189 218.528,261.996 220.884 C 261.803 223.241,261.463 225.508,261.241 225.923 C 261.019 226.337,260.646 228.220,260.412 230.107 C 260.177 231.994,259.719 234.176,259.393 234.956 C 259.067 235.736,258.799 236.965,258.798 237.687 C 258.796 238.409,258.511 239.540,258.164 240.200 C 257.817 240.860,257.359 242.461,257.148 243.758 C 256.937 245.055,256.502 246.490,256.182 246.947 C 255.862 247.404,255.600 248.285,255.600 248.905 C 255.600 249.525,255.240 250.738,254.800 251.600 C 254.360 252.462,254.000 253.446,254.000 253.786 C 254.000 254.125,253.640 255.075,253.200 255.896 C 252.760 256.716,252.399 257.661,252.397 257.994 C 252.396 258.327,252.037 259.140,251.600 259.800 C 251.163 260.460,250.804 261.383,250.803 261.851 C 250.801 262.319,250.530 262.926,250.200 263.200 C 249.870 263.474,249.600 263.875,249.600 264.092 C 249.600 264.608,248.127 267.898,246.525 270.962 C 245.823 272.303,244.591 274.660,243.787 276.200 C 242.983 277.740,241.937 279.657,241.463 280.461 C 240.988 281.264,239.932 283.082,239.115 284.500 C 238.298 285.918,237.353 287.307,237.015 287.588 C 236.677 287.868,236.400 288.247,236.400 288.429 C 236.400 289.051,230.362 297.381,227.723 300.400 C 227.434 300.730,226.349 302.080,225.310 303.400 C 218.834 311.633,197.027 331.247,190.446 334.758 C 189.871 335.065,189.310 335.426,189.200 335.559 C 189.090 335.693,188.280 336.268,187.400 336.837 C 183.781 339.177,182.650 339.855,180.342 341.063 C 179.760 341.367,179.063 341.883,178.793 342.208 C 178.523 342.534,177.992 342.800,177.613 342.800 C 177.234 342.800,176.598 343.160,176.200 343.600 C 175.802 344.040,175.155 344.400,174.762 344.400 C 174.369 344.400,173.940 344.574,173.808 344.787 C 173.487 345.306,165.443 349.200,164.691 349.200 C 164.365 349.200,163.880 349.463,163.613 349.785 C 163.346 350.106,162.739 350.483,162.264 350.622 C 161.392 350.876,158.333 352.177,157.172 352.787 C 156.826 352.969,155.296 353.594,153.772 354.176 C 152.247 354.759,150.100 355.579,149.000 355.999 C 147.900 356.419,146.460 356.890,145.800 357.045 C 145.140 357.200,144.240 357.548,143.800 357.818 C 143.360 358.089,142.286 358.436,141.414 358.589 C 140.541 358.743,139.371 359.102,138.814 359.387 C 138.256 359.672,136.990 360.038,136.000 360.199 C 135.010 360.361,133.840 360.682,133.400 360.914 C 132.960 361.145,131.520 361.568,130.200 361.853 C 123.926 363.209,120.915 363.932,119.980 364.309 C 119.420 364.534,117.797 364.844,116.375 364.996 C 109.017 365.784,106.126 372.483,111.194 377.000 C 112.285 377.972,119.535 377.972,121.862 377.000 C 122.600 376.692,124.328 376.325,125.702 376.185 C 127.076 376.045,129.236 375.586,130.502 375.165 C 131.767 374.744,133.207 374.400,133.702 374.400 C 134.486 374.400,136.719 373.761,141.000 372.310 C 141.660 372.086,143.100 371.725,144.200 371.507 C 145.300 371.289,146.940 370.771,147.844 370.355 C 148.748 369.940,149.784 369.600,150.145 369.600 C 150.507 369.600,151.475 369.240,152.296 368.800 C 153.116 368.360,154.241 367.999,154.794 367.997 C 155.347 367.996,156.340 367.637,157.000 367.200 C 157.660 366.763,158.458 366.404,158.774 366.403 C 159.381 366.400,162.017 365.281,164.479 363.981 C 165.293 363.551,166.254 363.200,166.616 363.200 C 166.978 363.200,167.731 362.840,168.291 362.400 C 168.850 361.960,169.622 361.600,170.005 361.600 C 170.388 361.600,170.911 361.348,171.167 361.039 C 171.423 360.731,172.120 360.357,172.716 360.208 C 173.312 360.059,174.070 359.703,174.400 359.416 C 174.730 359.129,175.450 358.762,176.000 358.600 C 176.550 358.438,177.270 358.078,177.600 357.800 C 177.930 357.522,178.650 357.162,179.200 357.000 C 179.750 356.838,180.470 356.478,180.800 356.200 C 181.130 355.922,181.850 355.559,182.400 355.392 C 182.950 355.226,183.829 354.755,184.354 354.345 C 184.879 353.935,185.465 353.600,185.658 353.600 C 185.851 353.600,186.905 352.970,188.000 352.200 C 189.095 351.430,190.110 350.800,190.254 350.800 C 190.399 350.800,191.526 350.125,192.759 349.300 C 193.991 348.475,195.289 347.620,195.643 347.400 C 195.996 347.180,197.076 346.464,198.043 345.808 C 199.009 345.153,200.106 344.433,200.479 344.208 C 202.615 342.925,214.162 333.746,217.364 330.785 C 223.916 324.727,232.253 315.993,236.354 310.889 C 238.171 308.628,239.966 306.468,240.342 306.089 C 240.719 305.710,241.561 304.596,242.214 303.613 C 242.866 302.631,243.670 301.536,244.000 301.179 C 244.330 300.823,244.824 300.187,245.097 299.766 C 245.371 299.345,246.176 298.100,246.888 297.000 C 247.599 295.900,248.410 294.762,248.690 294.471 C 248.971 294.181,249.200 293.708,249.200 293.420 C 249.200 293.133,249.466 292.677,249.792 292.407 C 250.117 292.137,250.657 291.395,250.992 290.758 C 251.943 288.946,252.756 287.548,253.989 285.600 C 254.616 284.610,256.328 281.370,257.795 278.400 C 259.262 275.430,260.808 272.334,261.231 271.521 C 261.654 270.707,262.000 269.784,262.000 269.470 C 262.000 269.155,262.265 268.678,262.589 268.409 C 262.914 268.140,263.301 267.266,263.451 266.468 C 263.601 265.670,264.055 264.473,264.460 263.808 C 264.865 263.144,265.198 262.284,265.199 261.899 C 265.199 261.513,265.560 260.525,266.000 259.704 C 266.440 258.884,266.806 257.849,266.813 257.406 C 266.820 256.963,267.077 256.268,267.384 255.863 C 267.691 255.458,268.066 254.378,268.216 253.463 C 268.367 252.548,268.732 251.350,269.027 250.800 C 269.322 250.250,269.746 248.990,269.969 248.000 C 270.810 244.263,271.644 240.939,272.177 239.200 C 272.479 238.210,272.841 236.590,272.979 235.600 C 273.117 234.610,273.484 232.630,273.795 231.200 C 274.524 227.844,275.585 220.729,276.002 216.400 C 276.433 211.938,276.446 190.710,276.020 188.400 C 275.539 185.789,274.429 181.191,273.945 179.800 C 273.715 179.140,273.338 177.880,273.106 177.000 C 272.875 176.120,272.463 175.130,272.190 174.800 C 271.918 174.470,271.562 173.750,271.400 173.200 C 271.238 172.650,270.878 171.930,270.600 171.600 C 270.322 171.270,269.960 170.560,269.796 170.023 C 268.612 166.150,260.584 157.496,254.639 153.682 C 251.456 151.640,246.922 149.205,246.267 149.186 C 246.010 149.179,245.080 148.825,244.200 148.400 C 243.320 147.975,242.189 147.621,241.687 147.614 C 241.185 147.606,240.105 147.312,239.287 146.961 C 235.833 145.476,225.381 144.889,219.000 145.823 M223.600 175.597 C 223.270 175.812,222.587 175.991,222.082 175.994 C 219.151 176.013,209.600 183.289,209.600 185.501 C 209.600 185.834,209.262 186.667,208.850 187.353 C 208.437 188.039,207.977 189.576,207.827 190.769 C 207.677 191.962,207.362 193.298,207.127 193.736 C 206.892 194.175,206.538 196.709,206.340 199.367 C 206.143 202.025,205.798 204.830,205.575 205.600 C 205.352 206.370,204.996 208.586,204.785 210.525 C 204.574 212.464,204.236 214.359,204.034 214.736 C 203.833 215.113,203.472 216.823,203.234 218.536 C 202.996 220.249,202.615 221.999,202.387 222.424 C 202.160 222.849,201.783 224.225,201.551 225.482 C 201.319 226.739,200.875 228.129,200.564 228.572 C 200.254 229.015,199.999 229.833,199.997 230.389 C 199.996 230.945,199.637 231.940,199.200 232.600 C 198.763 233.260,198.404 234.123,198.403 234.518 C 198.401 234.913,197.209 237.613,195.754 240.518 C 192.348 247.317,191.808 248.307,191.037 249.159 C 190.687 249.546,190.400 249.976,190.400 250.114 C 190.400 251.488,182.187 261.445,175.830 267.777 C 168.911 274.668,167.353 276.076,163.000 279.365 C 161.680 280.362,160.420 281.318,160.200 281.489 C 159.980 281.660,158.990 282.334,158.000 282.986 C 157.010 283.639,155.878 284.494,155.484 284.886 C 155.091 285.279,154.519 285.600,154.213 285.600 C 153.907 285.600,153.419 285.825,153.129 286.100 C 152.640 286.562,150.505 287.971,148.600 289.089 C 146.643 290.238,136.559 295.202,136.185 295.201 C 135.956 295.200,135.063 295.560,134.200 296.000 C 133.337 296.440,132.382 296.800,132.077 296.800 C 131.773 296.800,131.046 297.056,130.462 297.368 C 128.926 298.190,122.185 300.376,118.000 301.409 C 116.790 301.708,115.080 302.225,114.200 302.558 C 113.320 302.892,112.144 303.173,111.586 303.182 C 111.029 303.192,109.548 303.560,108.296 304.000 C 107.044 304.440,105.498 304.800,104.860 304.800 C 104.222 304.800,103.003 305.045,102.150 305.344 C 101.298 305.643,99.553 306.018,98.272 306.176 C 95.541 306.515,92.899 308.108,91.391 310.327 C 87.774 315.651,93.451 322.462,99.286 319.801 C 100.009 319.471,102.130 318.940,104.000 318.620 C 108.860 317.787,111.474 317.199,114.102 316.347 C 115.367 315.936,116.774 315.600,117.228 315.600 C 117.681 315.600,118.446 315.386,118.926 315.125 C 119.407 314.863,120.880 314.424,122.200 314.149 C 124.914 313.583,128.023 312.617,129.800 311.788 C 130.460 311.480,131.540 311.103,132.200 310.951 C 132.860 310.798,133.760 310.445,134.200 310.166 C 134.640 309.887,135.669 309.537,136.486 309.388 C 137.303 309.238,138.180 308.865,138.435 308.558 C 138.690 308.251,139.167 308.000,139.497 308.000 C 139.826 308.000,141.772 307.190,143.821 306.200 C 145.870 305.210,147.716 304.400,147.924 304.400 C 148.132 304.400,148.510 304.149,148.765 303.842 C 149.020 303.535,149.852 303.167,150.614 303.024 C 151.376 302.881,152.000 302.630,152.000 302.466 C 152.000 302.303,153.369 301.456,155.043 300.584 C 158.481 298.794,159.538 298.209,160.400 297.617 C 160.730 297.391,161.900 296.626,163.000 295.918 C 164.100 295.210,165.144 294.399,165.320 294.115 C 165.496 293.832,165.818 293.600,166.036 293.600 C 168.609 293.600,189.985 273.749,194.789 266.899 C 195.345 266.106,196.384 264.814,197.098 264.028 C 197.812 263.243,198.397 262.474,198.398 262.320 C 198.399 262.166,198.985 261.202,199.700 260.177 C 202.179 256.625,204.800 252.251,204.800 251.668 C 204.800 251.479,205.160 250.998,205.600 250.600 C 206.040 250.202,206.400 249.617,206.400 249.301 C 206.400 248.985,206.760 248.269,207.200 247.709 C 207.640 247.150,208.000 246.437,208.000 246.125 C 208.000 245.814,208.342 244.893,208.760 244.079 C 210.896 239.923,211.200 239.233,211.200 238.535 C 211.200 238.118,211.449 237.423,211.753 236.989 C 212.263 236.261,212.765 234.713,214.021 230.000 C 214.285 229.010,214.742 227.570,215.036 226.800 C 215.331 226.030,215.686 224.500,215.827 223.400 C 215.967 222.300,216.424 220.061,216.841 218.425 C 217.258 216.788,217.600 214.801,217.600 214.009 C 217.600 213.216,217.871 211.528,218.202 210.257 C 218.533 208.987,218.985 206.114,219.206 203.873 C 220.615 189.592,225.204 185.222,232.132 191.564 C 234.639 193.858,236.025 206.576,234.404 212.411 C 234.188 213.186,233.752 216.156,233.435 219.011 C 233.118 221.865,232.683 224.659,232.470 225.220 C 232.256 225.780,231.950 227.490,231.791 229.020 C 231.632 230.549,231.309 232.160,231.075 232.600 C 230.841 233.040,230.424 234.480,230.149 235.800 C 229.570 238.578,228.564 241.764,227.813 243.200 C 227.526 243.750,227.166 244.955,227.014 245.877 C 226.862 246.799,226.493 247.757,226.194 248.005 C 225.896 248.252,225.539 248.965,225.403 249.589 C 225.266 250.212,224.804 251.408,224.377 252.246 C 223.950 253.084,223.600 253.979,223.600 254.236 C 223.600 254.492,223.348 254.911,223.039 255.167 C 222.731 255.423,222.357 256.120,222.208 256.716 C 222.059 257.312,221.702 258.070,221.414 258.400 C 221.125 258.730,220.379 259.990,219.755 261.200 C 217.259 266.042,211.042 274.720,204.253 282.837 C 197.854 290.489,180.297 306.800,178.460 306.800 C 178.305 306.800,177.626 307.295,176.952 307.900 C 175.148 309.517,173.503 310.650,172.492 310.971 C 172.002 311.126,171.600 311.419,171.600 311.622 C 171.600 311.824,171.015 312.263,170.300 312.597 C 169.585 312.932,168.280 313.636,167.400 314.162 C 166.520 314.688,163.820 316.129,161.400 317.365 C 158.980 318.601,156.730 319.770,156.400 319.963 C 156.070 320.156,155.350 320.512,154.800 320.754 C 154.250 320.996,153.530 321.345,153.200 321.529 C 151.027 322.741,149.166 323.600,148.715 323.600 C 148.425 323.600,147.516 323.960,146.696 324.400 C 145.875 324.840,144.975 325.200,144.696 325.200 C 144.416 325.200,143.516 325.560,142.696 326.000 C 141.875 326.440,140.887 326.806,140.501 326.814 C 140.116 326.821,139.080 327.175,138.200 327.600 C 137.320 328.025,136.240 328.385,135.800 328.400 C 135.360 328.415,134.280 328.775,133.400 329.200 C 132.520 329.625,131.440 329.979,131.000 329.986 C 130.560 329.994,129.120 330.349,127.800 330.777 C 122.911 332.359,119.773 333.212,118.800 333.223 C 118.250 333.230,117.080 333.500,116.200 333.824 C 115.320 334.148,113.217 334.594,111.527 334.815 C 109.837 335.037,107.818 335.484,107.040 335.809 C 106.262 336.134,104.797 336.400,103.784 336.400 C 102.027 336.400,98.400 338.001,98.400 338.777 C 98.400 338.942,97.742 339.755,96.937 340.584 C 94.302 343.297,95.076 348.158,98.284 349.036 C 98.770 349.170,99.377 349.531,99.633 349.839 C 100.229 350.558,102.568 350.563,103.714 349.847 C 104.201 349.543,105.668 349.178,106.974 349.035 C 108.279 348.892,109.551 348.607,109.799 348.401 C 110.048 348.194,111.770 347.848,113.626 347.632 C 115.482 347.415,117.900 346.977,119.000 346.657 C 120.100 346.338,121.900 345.951,123.000 345.799 C 124.100 345.646,125.314 345.353,125.699 345.147 C 126.083 344.942,127.383 344.591,128.588 344.368 C 129.793 344.146,131.279 343.703,131.890 343.384 C 132.500 343.066,133.543 342.804,134.206 342.802 C 134.869 342.801,136.084 342.440,136.904 342.000 C 137.725 341.560,138.805 341.200,139.304 341.200 C 139.804 341.200,140.884 340.840,141.704 340.400 C 142.525 339.960,143.515 339.600,143.904 339.600 C 144.294 339.600,145.239 339.266,146.006 338.859 C 146.773 338.451,148.057 337.996,148.860 337.848 C 149.663 337.700,150.540 337.314,150.809 336.989 C 151.078 336.665,151.686 336.400,152.160 336.400 C 152.634 336.400,153.379 336.150,153.814 335.845 C 154.250 335.540,155.372 335.061,156.308 334.780 C 157.244 334.500,158.209 334.030,158.454 333.735 C 158.698 333.441,159.138 333.200,159.432 333.200 C 159.938 333.200,164.494 330.881,168.400 328.635 C 169.390 328.066,170.811 327.317,171.558 326.970 C 172.305 326.624,173.173 326.084,173.487 325.770 C 173.801 325.457,174.301 325.200,174.600 325.200 C 174.899 325.200,175.381 324.966,175.671 324.681 C 175.962 324.395,177.214 323.584,178.453 322.878 C 179.692 322.172,180.929 321.326,181.202 320.997 C 181.475 320.669,181.873 320.400,182.086 320.400 C 184.075 320.400,206.249 301.138,211.302 295.021 C 212.402 293.689,214.134 291.697,215.151 290.593 C 218.433 287.029,220.191 284.756,224.696 278.251 C 225.743 276.740,226.784 275.210,227.008 274.851 C 227.233 274.493,227.951 273.390,228.603 272.400 C 229.256 271.410,230.024 270.150,230.310 269.600 C 230.596 269.050,231.268 267.880,231.805 267.000 C 232.342 266.120,232.965 264.950,233.190 264.400 C 233.415 263.850,233.780 263.130,234.001 262.800 C 234.221 262.470,234.591 261.750,234.822 261.200 C 235.629 259.276,236.867 256.591,237.431 255.538 C 237.744 254.954,238.000 254.254,238.000 253.982 C 238.000 253.710,238.338 252.748,238.751 251.844 C 239.877 249.378,241.107 245.967,241.408 244.473 C 241.555 243.743,241.927 242.663,242.235 242.073 C 242.543 241.483,242.796 240.506,242.798 239.902 C 242.799 239.297,243.144 237.767,243.564 236.502 C 243.985 235.236,244.445 233.210,244.588 232.000 C 244.730 230.790,245.097 228.990,245.403 228.000 C 245.709 227.010,246.163 224.310,246.413 222.000 C 246.662 219.690,247.035 216.450,247.241 214.800 C 247.448 213.150,247.652 207.390,247.695 202.000 C 247.780 191.339,247.950 192.400,245.282 186.892 C 243.965 184.172,239.550 179.527,237.042 178.221 C 235.965 177.660,234.866 177.021,234.599 176.799 C 233.359 175.770,224.775 174.832,223.600 175.597 M274.608 285.392 C 270.183 286.571,268.745 290.697,271.187 295.208 C 271.839 296.414,272.655 297.940,273.001 298.600 C 273.346 299.260,274.068 300.520,274.605 301.400 C 275.142 302.280,275.765 303.450,275.990 304.000 C 276.215 304.550,276.583 305.270,276.807 305.600 C 277.032 305.930,277.437 306.650,277.709 307.200 C 279.768 311.368,291.701 325.200,293.238 325.200 C 293.408 325.200,294.864 326.237,296.474 327.505 C 298.083 328.773,299.850 330.037,300.400 330.313 C 300.950 330.590,302.120 331.244,303.000 331.768 C 303.880 332.292,305.680 333.295,307.000 333.997 C 308.320 334.699,310.480 335.872,311.800 336.604 C 313.120 337.336,314.493 337.950,314.851 337.967 C 315.209 337.985,315.717 338.258,315.979 338.574 C 316.241 338.890,316.970 339.262,317.600 339.400 C 318.230 339.538,318.950 339.898,319.200 340.200 C 319.450 340.502,320.228 340.870,320.928 341.017 C 321.627 341.165,322.761 341.627,323.447 342.043 C 324.133 342.459,325.079 342.800,325.549 342.800 C 326.018 342.800,327.075 343.160,327.896 343.600 C 333.735 346.730,340.427 342.243,338.514 336.481 C 337.872 334.548,336.963 333.200,336.301 333.200 C 336.095 333.200,335.469 332.840,334.909 332.400 C 334.350 331.960,333.556 331.600,333.145 331.600 C 332.733 331.600,331.725 331.240,330.904 330.800 C 330.084 330.360,329.189 330.000,328.917 330.000 C 328.437 330.000,325.217 328.656,324.000 327.947 C 323.670 327.755,322.950 327.408,322.400 327.176 C 320.848 326.521,314.382 323.219,312.600 322.172 C 311.720 321.655,310.460 320.929,309.800 320.560 C 309.140 320.190,307.391 318.968,305.913 317.844 C 304.436 316.720,302.485 315.260,301.578 314.600 C 297.907 311.928,291.448 304.566,289.198 300.491 C 288.867 299.891,288.029 298.562,287.337 297.538 C 286.644 296.513,285.949 295.253,285.792 294.738 C 285.634 294.222,285.278 293.530,285.000 293.200 C 284.722 292.870,284.359 292.150,284.192 291.600 C 284.026 291.050,283.555 290.171,283.145 289.646 C 282.735 289.121,282.400 288.520,282.400 288.310 C 282.400 287.531,280.186 285.617,279.013 285.383 C 278.346 285.249,277.530 285.078,277.200 285.001 C 276.870 284.924,275.703 285.100,274.608 285.392 M250.867 317.477 C 249.307 317.790,246.530 320.397,246.140 321.915 C 244.741 327.373,248.036 331.164,254.310 331.314 L 257.919 331.400 265.059 338.624 C 268.987 342.596,273.622 346.899,275.360 348.184 C 277.099 349.469,278.810 350.809,279.163 351.160 C 280.272 352.264,290.521 359.145,292.798 360.315 C 293.349 360.598,294.520 361.267,295.400 361.802 C 296.280 362.338,299.021 363.781,301.490 365.010 C 303.960 366.239,306.073 367.394,306.186 367.577 C 306.299 367.760,307.005 368.024,307.755 368.165 C 308.506 368.306,309.325 368.669,309.576 368.971 C 309.827 369.274,310.520 369.643,311.116 369.792 C 311.712 369.941,312.470 370.296,312.800 370.580 C 313.130 370.865,314.111 371.226,314.980 371.382 C 315.848 371.538,316.923 371.921,317.369 372.233 C 319.658 373.836,326.518 372.790,328.878 370.477 C 331.923 367.494,327.976 361.310,322.355 360.255 C 321.585 360.111,320.252 359.634,319.393 359.196 C 318.534 358.758,317.531 358.400,317.164 358.400 C 316.798 358.400,316.290 358.149,316.035 357.842 C 315.780 357.535,314.966 357.170,314.226 357.031 C 313.486 356.892,312.670 356.525,312.413 356.215 C 312.155 355.905,311.430 355.538,310.800 355.400 C 310.170 355.262,309.450 354.902,309.200 354.600 C 308.950 354.298,308.230 353.938,307.600 353.800 C 306.970 353.662,306.241 353.290,305.979 352.974 C 305.717 352.658,305.278 352.400,305.005 352.400 C 304.732 352.400,304.079 352.070,303.554 351.667 C 303.029 351.264,301.793 350.499,300.806 349.967 C 298.241 348.584,295.951 347.110,290.600 343.401 C 289.500 342.638,287.610 341.344,286.400 340.525 C 285.190 339.707,280.060 334.866,275.000 329.769 C 266.479 321.186,263.643 318.800,261.956 318.800 C 261.596 318.800,260.603 318.556,259.750 318.257 C 258.079 317.671,252.390 317.172,250.867 317.477 M231.400 347.591 C 229.640 347.752,227.480 348.171,226.600 348.524 C 225.720 348.876,224.578 349.173,224.063 349.182 C 223.548 349.192,222.669 349.560,222.109 350.000 C 221.550 350.440,220.778 350.800,220.395 350.800 C 220.012 350.800,219.483 351.058,219.221 351.374 C 218.959 351.690,218.219 352.064,217.577 352.205 C 216.935 352.346,216.316 352.613,216.201 352.798 C 216.018 353.094,212.948 354.975,209.654 356.811 C 209.051 357.147,208.297 357.652,207.979 357.935 C 207.387 358.459,204.971 359.984,200.461 362.682 C 199.064 363.517,197.324 364.560,196.593 365.000 C 192.828 367.267,190.127 368.873,189.500 369.216 C 189.115 369.427,188.485 369.782,188.100 370.005 C 187.715 370.228,186.680 370.773,185.800 371.216 C 184.920 371.660,183.036 372.647,181.613 373.411 C 180.191 374.175,178.818 374.800,178.562 374.800 C 178.307 374.800,177.874 375.070,177.600 375.400 C 177.326 375.730,176.788 376.000,176.405 376.000 C 176.022 376.000,175.250 376.360,174.691 376.800 C 174.131 377.240,173.371 377.600,173.000 377.600 C 172.629 377.600,171.869 377.960,171.309 378.400 C 170.750 378.840,170.037 379.200,169.725 379.200 C 169.414 379.200,168.448 379.560,167.579 380.000 C 166.711 380.440,165.289 381.160,164.421 381.600 C 163.552 382.040,162.553 382.400,162.200 382.400 C 161.847 382.400,160.893 382.744,160.079 383.164 C 159.266 383.585,157.610 384.324,156.400 384.807 C 155.190 385.290,153.430 386.026,152.489 386.443 C 151.548 386.859,150.506 387.200,150.173 387.200 C 149.840 387.200,148.862 387.560,148.000 388.000 C 147.138 388.440,146.058 388.800,145.600 388.800 C 145.142 388.800,144.062 389.160,143.200 389.600 C 142.338 390.040,141.125 390.400,140.505 390.400 C 139.885 390.400,138.990 390.672,138.516 391.004 C 138.041 391.336,136.803 391.724,135.765 391.867 C 127.637 392.981,125.756 402.036,133.061 404.882 C 135.147 405.694,139.692 405.116,141.872 403.761 C 142.351 403.462,143.521 403.103,144.472 402.962 C 145.422 402.821,146.579 402.470,147.042 402.182 C 147.504 401.894,148.584 401.528,149.442 401.369 C 150.299 401.210,151.360 400.857,151.800 400.585 C 152.240 400.312,153.311 399.965,154.180 399.812 C 155.048 399.659,156.123 399.279,156.569 398.967 C 157.014 398.655,157.660 398.400,158.004 398.400 C 158.349 398.400,159.297 398.060,160.111 397.645 C 160.925 397.230,162.205 396.775,162.955 396.635 C 163.706 396.494,164.524 396.132,164.774 395.831 C 165.024 395.530,165.834 395.170,166.574 395.031 C 167.314 394.892,168.140 394.514,168.409 394.189 C 168.678 393.865,169.214 393.600,169.601 393.600 C 169.988 393.600,171.721 392.907,173.452 392.059 C 175.183 391.212,177.680 390.026,179.000 389.424 C 180.320 388.822,181.670 388.165,182.000 387.964 C 182.330 387.763,183.050 387.419,183.600 387.199 C 184.150 386.980,184.870 386.620,185.200 386.399 C 185.530 386.179,186.250 385.819,186.800 385.599 C 187.350 385.380,188.070 385.023,188.400 384.806 C 188.730 384.589,189.540 384.147,190.200 383.822 C 190.860 383.498,192.660 382.504,194.200 381.613 C 195.740 380.723,197.630 379.705,198.400 379.352 C 199.170 378.999,199.890 378.584,200.000 378.429 C 200.110 378.275,201.910 377.182,204.000 376.000 C 206.090 374.818,207.890 373.733,208.000 373.588 C 208.184 373.344,208.987 372.882,211.594 371.520 C 212.445 371.075,218.993 366.858,220.800 365.591 C 223.395 363.772,229.224 361.173,232.600 360.330 C 234.538 359.846,238.947 360.223,240.137 360.976 C 240.612 361.276,241.623 361.652,242.384 361.811 C 243.146 361.970,244.226 362.410,244.784 362.789 C 245.343 363.168,246.592 364.000,247.559 364.639 C 251.999 367.569,253.830 368.873,255.209 370.089 C 256.027 370.810,257.100 371.670,257.594 372.000 C 258.087 372.330,259.080 373.050,259.800 373.600 C 260.520 374.150,261.515 374.870,262.010 375.200 C 262.506 375.530,263.407 376.205,264.013 376.700 C 264.620 377.195,265.244 377.600,265.400 377.600 C 265.556 377.600,266.189 378.005,266.806 378.500 C 269.144 380.375,269.776 380.800,270.232 380.800 C 270.491 380.800,270.935 381.080,271.219 381.423 C 271.504 381.766,272.291 382.305,272.968 382.622 C 273.646 382.939,274.740 383.553,275.400 383.986 C 276.060 384.420,277.191 385.044,277.914 385.373 C 278.637 385.702,279.505 386.247,279.843 386.585 C 280.181 386.923,280.782 387.200,281.180 387.200 C 281.577 387.200,282.102 387.441,282.346 387.735 C 282.591 388.030,283.513 388.487,284.395 388.751 C 285.278 389.016,286.000 389.391,286.000 389.584 C 286.000 389.778,286.585 390.063,287.300 390.218 C 288.015 390.373,289.230 390.821,290.000 391.213 C 292.663 392.568,295.090 393.600,295.612 393.600 C 295.901 393.600,296.421 393.854,296.769 394.165 C 297.116 394.476,298.472 394.926,299.781 395.166 C 301.091 395.407,302.342 395.782,302.561 396.001 C 302.781 396.221,304.289 396.400,305.913 396.400 C 314.402 396.400,316.339 384.720,308.000 383.812 C 305.267 383.514,302.475 382.762,299.800 381.603 C 297.424 380.573,294.282 379.127,293.600 378.750 C 293.270 378.567,291.699 377.773,290.109 376.985 C 288.519 376.197,287.122 375.397,287.004 375.207 C 286.887 375.017,286.272 374.747,285.637 374.608 C 285.002 374.469,284.166 374.005,283.779 373.577 C 283.393 373.150,282.889 372.800,282.660 372.800 C 282.179 372.800,279.066 370.748,278.867 370.300 C 278.793 370.135,278.503 370.000,278.222 370.000 C 277.788 370.000,275.997 368.780,274.117 367.205 C 273.851 366.982,273.462 366.800,273.253 366.800 C 273.043 366.800,272.001 366.124,270.936 365.298 C 269.871 364.472,268.190 363.258,267.200 362.600 C 265.551 361.504,260.194 357.486,258.825 356.319 C 256.316 354.179,248.306 349.608,246.000 349.000 C 245.450 348.855,244.460 348.499,243.800 348.209 C 242.285 347.543,235.592 347.209,231.400 347.591 M226.000 381.600 C 225.230 382.022,224.278 382.374,223.884 382.383 C 223.490 382.392,222.680 382.722,222.084 383.116 C 220.415 384.218,219.506 384.761,218.200 385.436 C 217.540 385.776,216.280 386.491,215.400 387.025 C 214.520 387.558,213.227 388.263,212.527 388.591 C 211.827 388.919,211.140 389.373,211.000 389.600 C 210.860 389.827,210.173 390.279,209.473 390.605 C 208.773 390.931,207.660 391.553,207.000 391.986 C 206.340 392.420,205.260 393.057,204.600 393.401 C 203.940 393.746,202.680 394.471,201.800 395.011 C 200.920 395.552,199.660 396.271,199.000 396.610 C 198.340 396.948,196.360 398.025,194.600 399.002 C 192.840 399.980,189.510 401.701,187.200 402.828 C 184.890 403.954,182.345 405.219,181.546 405.638 C 180.746 406.057,179.733 406.400,179.295 406.400 C 178.856 406.400,178.274 406.670,178.000 407.000 C 177.726 407.330,177.292 407.600,177.036 407.600 C 176.779 407.600,175.863 407.960,175.000 408.400 C 174.137 408.840,173.241 409.200,173.009 409.200 C 172.778 409.200,171.916 409.560,171.096 410.000 C 170.275 410.440,169.395 410.800,169.140 410.800 C 168.339 410.800,164.242 412.853,163.261 413.745 C 157.451 419.034,163.967 428.118,170.904 424.400 C 171.725 423.960,172.685 423.600,173.037 423.600 C 173.389 423.600,174.154 423.340,174.738 423.023 C 175.322 422.705,176.970 421.970,178.400 421.389 C 179.830 420.808,181.540 420.094,182.200 419.801 C 182.860 419.509,184.480 418.801,185.800 418.229 C 187.120 417.656,188.866 416.830,189.679 416.394 C 190.493 415.957,191.364 415.600,191.616 415.600 C 191.868 415.600,192.531 415.240,193.091 414.800 C 193.650 414.360,194.419 414.000,194.800 414.000 C 195.181 414.000,195.950 413.640,196.509 413.200 C 197.069 412.760,197.731 412.400,197.982 412.400 C 198.379 412.400,201.443 410.682,206.339 407.714 C 207.142 407.227,208.340 406.546,209.000 406.200 C 209.660 405.855,211.190 404.955,212.400 404.202 C 213.610 403.448,214.825 402.824,215.100 402.816 C 215.375 402.807,215.600 402.611,215.600 402.380 C 215.600 402.148,216.185 401.688,216.900 401.356 C 218.676 400.531,219.862 399.839,220.697 399.142 C 221.084 398.819,221.850 398.341,222.400 398.080 C 223.448 397.583,224.334 397.066,226.000 395.980 C 229.226 393.877,233.343 393.213,235.800 394.400 C 236.680 394.825,237.704 395.179,238.076 395.186 C 238.448 395.194,238.858 395.371,238.988 395.580 C 239.117 395.789,240.291 396.503,241.597 397.167 C 242.902 397.830,244.832 399.001,245.885 399.769 C 249.261 402.230,254.553 405.791,255.257 406.076 C 255.633 406.228,256.852 406.993,257.966 407.776 C 259.080 408.559,260.236 409.200,260.534 409.200 C 260.832 409.200,261.393 409.550,261.779 409.977 C 262.166 410.405,262.992 410.866,263.614 411.003 C 264.236 411.140,264.950 411.498,265.200 411.800 C 265.450 412.102,266.170 412.462,266.800 412.600 C 267.430 412.738,268.150 413.098,268.400 413.400 C 268.650 413.702,269.370 414.062,270.000 414.200 C 270.630 414.338,271.359 414.710,271.621 415.026 C 271.883 415.342,272.453 415.600,272.886 415.600 C 273.319 415.600,274.131 415.960,274.691 416.400 C 275.250 416.840,276.089 417.201,276.554 417.203 C 277.019 417.204,277.940 417.563,278.600 418.000 C 279.495 418.593,280.478 418.795,282.469 418.797 L 285.138 418.800 286.969 416.707 C 290.303 412.896,288.690 407.391,283.885 406.186 C 283.306 406.040,282.623 405.669,282.367 405.361 C 282.111 405.052,281.651 404.800,281.344 404.800 C 281.037 404.800,279.934 404.374,278.893 403.854 C 277.852 403.334,275.920 402.370,274.600 401.713 C 271.025 399.934,267.227 397.879,265.200 396.627 C 260.434 393.684,257.105 391.499,256.471 390.900 C 256.181 390.625,255.714 390.400,255.433 390.400 C 255.153 390.400,254.598 390.040,254.200 389.600 C 253.802 389.160,253.338 388.800,253.169 388.800 C 253.001 388.800,251.692 388.035,250.262 387.100 C 245.186 383.783,243.475 382.784,242.444 382.537 C 241.870 382.399,240.732 381.952,239.916 381.543 C 237.716 380.441,228.044 380.481,226.000 381.600 M233.254 415.000 C 232.514 415.330,231.634 415.600,231.298 415.600 C 230.962 415.600,229.858 415.977,228.844 416.438 C 227.830 416.899,226.190 417.633,225.200 418.069 C 224.210 418.504,222.734 419.207,221.921 419.630 C 221.107 420.054,220.137 420.400,219.765 420.400 C 219.093 420.400,216.767 421.370,213.921 422.837 C 213.107 423.257,212.117 423.601,211.721 423.603 C 211.324 423.604,210.460 423.963,209.800 424.400 C 209.140 424.837,208.237 425.196,207.794 425.197 C 207.351 425.199,206.316 425.560,205.496 426.000 C 204.675 426.440,203.506 426.800,202.898 426.800 C 197.971 426.800,194.927 432.290,197.967 435.694 C 199.101 436.964,199.219 436.999,202.267 436.974 C 206.730 436.936,220.698 436.110,221.102 435.860 C 221.444 435.649,229.544 435.022,237.035 434.626 C 246.815 434.109,251.640 428.404,248.100 421.542 C 245.332 416.176,237.929 412.914,233.254 415.000 " stroke="none" fill="#4d7ada" fill-rule="evenodd"></path></g></svg>